<?xml version="1.0" encoding="UTF-8" standalone="no"?>
<!-- Created with Inkscape (http://www.inkscape.org/) -->

<svg
   xmlns:dc="http://purl.org/dc/elements/1.1/"
   xmlns:cc="http://creativecommons.org/ns#"
   xmlns:rdf="http://www.w3.org/1999/02/22-rdf-syntax-ns#"
   xmlns:svg="http://www.w3.org/2000/svg"
   xmlns="http://www.w3.org/2000/svg"
   xmlns:sodipodi="http://sodipodi.sourceforge.net/DTD/sodipodi-0.dtd"
   xmlns:inkscape="http://www.inkscape.org/namespaces/inkscape"
   width="156.83542mm"
   height="52.690071mm"
   viewBox="0 0 156.83542 52.690071"
   version="1.1"
   id="svg172"
   inkscape:version="0.92.2 2405546, 2018-03-11"
   sodipodi:docname="shotgun.svg">
  <defs
     id="defs166" />
  <sodipodi:namedview
     id="base"
     pagecolor="#ffffff"
     bordercolor="#666666"
     borderopacity="1.0"
     inkscape:pageopacity="0.0"
     inkscape:pageshadow="2"
     inkscape:zoom="2.8"
     inkscape:cx="248.16259"
     inkscape:cy="143.71377"
     inkscape:document-units="mm"
     inkscape:current-layer="layer1"
     showgrid="false"
     showguides="false"
     fit-margin-top="0"
     fit-margin-left="0"
     fit-margin-right="0"
     fit-margin-bottom="0"
     inkscape:window-width="2552"
     inkscape:window-height="1558"
     inkscape:window-x="0"
     inkscape:window-y="0"
     inkscape:window-maximized="0" />
  <metadata
     id="metadata169">
    <rdf:RDF>
      <cc:Work
         rdf:about="">
        <dc:format>image/svg+xml</dc:format>
        <dc:type
           rdf:resource="http://purl.org/dc/dcmitype/StillImage" />
        <dc:title></dc:title>
      </cc:Work>
    </rdf:RDF>
  </metadata>
  <g
     inkscape:label="Layer 1"
     inkscape:groupmode="layer"
     id="layer1"
     transform="translate(-40.173649,-111.48896)">
    <path
       style="fill:#000000;stroke-width:0.18458128"
       d="m 41.010415,111.87861 c 0.655726,-0.27449 2.551341,-0.22995 2.551341,-0.22995 l 102.904014,-0.046 v 6.89836 H 43.939732 c 0,0 -2.220556,0.0221 -2.929317,-0.32192 -0.80069,-0.38867 -0.755952,-1.60962 -0.755952,-1.60962 l -0.09449,-3.49517 c 0,0 0.19342,-0.92068 0.850446,-1.19572 z"
       id="rect178"
       inkscape:connector-curvature="0"
       sodipodi:nodetypes="sccccsccs" />
    <path
       style="fill:#000000;stroke-width:0.52257729"
       d="m 55.562512,113.11458 h 90.808778 v 11.43378 H 55.562512 Z"
       id="rect183"
       inkscape:connector-curvature="0" />
    <rect
       style="fill:#000000;stroke-width:0.26458332"
       id="rect198"
       width="40.632439"
       height="4.9136906"
       x="63.5"
       y="123.41443" />
    <path
       style="fill:none;stroke:#000000;stroke-width:0.26458332px;stroke-linecap:butt;stroke-linejoin:miter;stroke-opacity:1"
       d="m 146.46577,111.60266 c 0,0 20.47839,-0.36143 30.23809,2.26787 1.1154,0.30049 2.1373,0.90198 3.11832,1.51191 1.21996,0.75849 2.36789,1.64849 3.40178,2.64583 1.27131,1.22637 2.38559,2.61839 3.40178,4.06324 1.61606,2.29776 3.29108,4.63643 4.25224,7.27604 3.64096,9.99912 7.73508,21.0876 5.38616,31.46651 -0.14468,0.63926 -0.55839,1.29281 -1.13393,1.6064 -0.66439,0.362 -1.51162,0.0709 -2.26786,0.0945 -4.56597,0.14235 -10.23334,3.25658 -13.70163,0.28348 -4.65078,-3.98676 -1.62178,-12.14355 -2.43267,-18.21533 -0.48053,-3.59811 -0.0316,-7.44933 -1.44159,-10.79434 -0.79301,-1.88124 -2.05504,-3.72684 -3.77976,-4.8192 -1.20069,-0.76046 -2.96156,-1.71249 -4.15773,-0.94494 -1.16462,0.7473 -0.0223,2.95464 -0.85045,4.06324 -0.83498,1.11775 -2.29604,1.85551 -3.68527,1.98439 -1.54733,0.14355 -3.19504,-0.48904 -4.44122,-1.41741 -1.25409,-0.93426 -1.83076,-2.53962 -2.64583,-3.87425 -0.65379,-1.07055 -0.75931,-2.60015 -1.79538,-3.3073 -2.09747,-1.43159 -7.55952,-0.94494 -7.55952,-0.94494"
       id="path200"
       inkscape:connector-curvature="0"
       sodipodi:nodetypes="caaaaaaaaaaaaaaaaaac" />
    <path
       style="fill:#000000;stroke-width:0.35714287"
       d="m 685.81277,618.90846 c -4.7874,-1.04024 -9.64067,-4.56885 -12.76884,-9.2837 -1.64179,-2.47455 -3.4401,-7.04153 -4.2884,-10.89079 -0.95081,-4.31441 -1.10028,-15.62042 -0.35176,-26.60714 0.79422,-11.65754 0.81512,-20.95784 0.0622,-27.67857 -0.31909,-2.84822 -0.75713,-8.71429 -0.97341,-13.03572 -0.7787,-15.55857 -2.07579,-21.71638 -6.29523,-29.88599 -4.33146,-8.3865 -11.03308,-14.7041 -19.14757,-18.05036 -3.25088,-1.3406 -7.04364,-1.50278 -9.18443,-0.39274 -2.66161,1.38009 -3.03972,2.42869 -3.0678,8.50766 -0.0195,4.2225 -0.14293,5.42696 -0.66858,6.52395 -1.4351,2.99494 -6.72943,6.4929 -11.54204,7.6258 -4.72838,1.11307 -10.74011,-0.0727 -15.93901,-3.14374 -3.11773,-1.8417 -4.94702,-3.49629 -6.62597,-5.99314 -2.43351,-3.61902 -6.66826,-11.57564 -8.02174,-15.07198 -2.43512,-6.29045 -4.20698,-8.18166 -9.11918,-9.73342 -4.50003,-1.42156 -8.13399,-1.81461 -16.77699,-1.81461 h -8.00314 l 0.23529,-16.57652 c 0.1294,-9.11708 0.23528,-19.84476 0.23528,-23.83928 v -7.26277 l 7.94643,0.006 c 45.6585,0.0336 88.17865,3.54317 106.19991,8.76552 9.37392,2.71646 22.14582,12.09923 30.91708,22.71297 5.26594,6.37211 13.79495,18.78057 17.51376,25.47994 2.70723,4.87705 3.62021,7.06563 7.92599,19.0001 12.24354,33.93585 17.42694,53.94385 19.17021,73.99719 0.53928,6.20358 0.22859,21.73655 -0.53653,26.82414 -1.34111,8.9175 -2.01524,11.0161 -4.218,13.13097 -1.65233,1.5864 -2.68918,1.80973 -7.44103,1.60274 -5.00708,-0.21811 -9.1528,0.35064 -20.07782,2.7545 -4.36464,0.96036 -9.64384,1.99874 -11.73155,2.30752 -4.55788,0.67412 -10.38097,0.6835 -13.42711,0.0216 z"
       id="path202"
       inkscape:connector-curvature="0"
       transform="scale(0.26458333)" />
    <path
       style="fill:#000000;stroke-width:0.35714287"
       d="m 685.89286,619.928 c -4.879,-1.04109 -8.82425,-3.58356 -12.31611,-7.93695 -6.08711,-7.58896 -7.71068,-17.69972 -6.22925,-38.79279 0.75796,-10.79213 0.86389,-22.97744 0.2375,-27.32143 -0.24075,-1.66964 -0.67768,-7.375 -0.97093,-12.67857 -0.59678,-10.79268 -0.98796,-14.52635 -2.0385,-19.45675 -1.75971,-8.2587 -5.59996,-15.61808 -11.15536,-21.37789 -2.90575,-3.01267 -5.90939,-5.11475 -10.35964,-7.25014 -2.64832,-1.27074 -3.54975,-1.52307 -5.86289,-1.64111 -2.14014,-0.1092 -3.00472,10e-4 -3.98339,0.50749 -2.09222,1.08288 -2.49883,2.40433 -2.49943,8.1235 0,5.95394 -0.40125,7.08591 -3.478,9.82815 -4.26972,3.80554 -10.75268,5.84657 -16.14736,5.08366 -3.45882,-0.48914 -7.73936,-2.09383 -10.78393,-4.0427 -2.88157,-1.84451 -4.32221,-3.20393 -6.00568,-5.66707 -2.40843,-3.5239 -7.03893,-12.24169 -8.41635,-15.84548 -2.14183,-5.60362 -3.76736,-7.24417 -8.74068,-8.82135 -6.0844,-1.92953 -2.73432,-1.85951 -96.69643,-2.02129 l -86.875,-0.14957 v 7.16884 7.16885 H 316.78571 240 v -7.14286 -7.14286 h -15 -15 v -11.42857 -11.42857 h -24.48516 c -29.91463,0 -30.67863,-0.0781 -32.36914,-3.31093 -0.71959,-1.37607 -0.80873,-2.19384 -1.00168,-9.18907 -0.18379,-6.66324 -0.13344,-7.86747 0.38072,-9.10714 0.74496,-1.79612 1.89696,-2.84681 3.72526,-3.39767 1.10357,-0.3325 50.21871,-0.48841 215.89286,-0.6853 117.95535,-0.14018 218.40178,-0.12274 223.21428,0.0388 37.5505,1.2601 68.30429,5.31155 78.24022,10.30725 11.22643,5.64453 20.92228,14.02974 29.51203,25.52267 3.50879,4.69468 9.85561,14.02781 12.26486,18.03572 3.29739,5.48538 5.22425,9.80605 8.91921,20 15.66147,43.2079 20.83911,66.37341 20.2354,90.53571 -0.20711,8.28756 -0.78265,13.83984 -2.02465,19.53127 -0.778,3.56506 -1.41635,4.9867 -2.99064,6.65992 -1.93128,2.0527 -2.50639,2.20153 -8.51368,2.20311 -6.2926,0.002 -8.93132,0.37532 -20.46418,2.89794 -12.97053,2.83708 -19.15235,3.39479 -24.64285,2.22322 z m 16.25,-1.14518 c 2.0625,-0.39246 6,-1.2191 8.75,-1.83699 11.04989,-2.48275 11.81703,-2.59276 18.79807,-2.69565 7.07293,-0.10425 7.89586,-0.27815 9.46518,-2.00013 1.10128,-1.20839 2.09325,-3.40141 2.55971,-5.65894 1.81354,-8.77693 2.35361,-15.58636 2.10554,-26.54806 -0.50643,-22.38046 -5.62775,-43.87785 -19.68632,-82.63605 -5.45654,-15.0432 -6.69597,-17.54961 -14.1949,-28.70554 -9.93032,-14.77305 -16.06235,-21.80934 -24.65318,-28.2887 -3.79221,-2.86016 -8.94153,-6.04988 -12.60971,-7.81103 -8.92579,-4.28541 -35.39125,-7.98648 -68.57011,-9.58921 -14.86696,-0.71816 -49.85982,-1.34076 -49.39796,-0.87889 0.10196,0.10195 8.8475,0.33927 19.43453,0.52737 38.65136,0.68673 66.87568,2.92626 86.01011,6.82469 9.18161,1.87065 13.55993,3.6518 20.59143,8.37677 10.6545,7.15952 18.89711,16.22074 29.73289,32.68577 6.7479,10.25351 8.25047,13.40198 13.87729,29.0786 10.47086,29.1723 15.58957,47.88183 18.02764,65.89286 0.94339,6.96938 0.94104,29.05348 -0.004,34.82142 -1.23071,7.5136 -2.11982,9.96384 -4.31496,11.8912 -1.54129,1.35326 -2.08029,1.44487 -9.49297,1.61343 -5.65739,0.12864 -6.36378,0.23239 -17.67857,2.59652 l -11.78571,2.46253 -6.78572,10e-4 c -6.24336,10e-4 -6.93746,-0.0629 -8.68418,-0.80374 -7.36007,-3.1215 -12.17618,-9.31693 -14.569,-18.74156 -0.84418,-3.32497 -1.06218,-16.3253 -0.45668,-27.2341 0.63629,-11.46395 0.58422,-21.81517 -0.15275,-30.35714 -0.322,-3.73214 -0.75825,-9.59821 -0.9695,-13.03571 -0.93367,-15.19479 -3.14546,-23.21553 -8.70675,-31.57362 -3.727,-5.60131 -10.09032,-10.98174 -16.02182,-13.54702 -2.2971,-0.99347 -2.96357,-1.11746 -6.03696,-1.12306 -2.93807,-0.005 -3.6025,0.10384 -4.44225,0.73005 -2.22507,1.65933 -2.38668,2.16691 -2.63357,8.27123 -0.26257,6.49278 -0.45111,7.04178 -3.26257,9.50117 -6.45983,5.65092 -15.09486,6.39277 -23.50165,2.01908 -4.09285,-2.12934 -6.57785,-4.55327 -9.18664,-8.96089 -2.59357,-4.3819 -5.65593,-10.43462 -7.29782,-14.42409 -1.58207,-3.84404 -4.142,-6.44756 -7.47072,-7.59795 -4.72846,-1.63413 -6.93775,-1.91769 -16.51785,-2.12007 -5.18265,-0.10948 -9.196,-0.0575 -9.19547,0.11902 0,0.17231 3.89786,0.3265 8.66072,0.34264 10.24668,0.0347 13.99403,0.624 18.4546,2.902 3.2095,1.63907 4.31454,3.08258 6.27425,8.19613 1.2435,3.24477 3.12418,6.92582 6.68265,13.07986 2.98846,5.16829 7.50893,8.75787 13.5705,10.77592 5.36921,1.78756 10.49328,1.49592 15.473,-0.88066 2.85139,-1.36085 6.74775,-4.8932 7.32425,-6.64002 0.22578,-0.68415 0.43589,-3.52704 0.46693,-6.31753 0.0485,-4.35988 0.15582,-5.23798 0.76292,-6.24192 1.36729,-2.26111 5.23075,-3.20531 8.93636,-2.18398 1.955,0.53884 6.51161,2.84268 9.20293,4.65305 8.15975,5.48886 14.62911,16.47833 16.67946,28.3334 0.8704,5.03262 0.98422,6.27234 1.62415,17.68726 0.29178,5.20535 0.72128,10.75 0.95439,12.32143 0.59286,3.99621 0.50025,16.33612 -0.1955,26.05303 -1.37507,19.20417 -0.28057,29.33146 3.95804,36.62293 3.01821,5.1921 8.42217,9.33857 13.75885,10.55721 3.04422,0.69516 11.38468,0.43699 16.33911,-0.50576 z M 553.48075,450.98466 c -0.0643,-1.92538 -0.11725,-0.44712 -0.11761,3.28502 -3.2e-4,3.73215 0.0523,5.30746 0.117,3.5007 0.0647,-1.80676 0.065,-4.86033 0,-6.78572 z"
       id="path204"
       inkscape:connector-curvature="0"
       transform="scale(0.26458333)" />
    <path
       style="fill:#000000;stroke-width:0.35714287"
       d="m 685.95539,619.96233 c -5.11307,-1.14688 -9.24232,-3.82708 -12.49107,-8.10769 -6.08321,-8.01533 -7.55496,-17.29518 -6.13078,-38.65638 0.74821,-11.22226 0.85135,-22.56722 0.24675,-27.14286 -0.23358,-1.76786 -0.6715,-7.55357 -0.97315,-12.85714 -0.64243,-11.29469 -1.2665,-16.64641 -2.49057,-21.35766 -2.38732,-9.1883 -7.84889,-17.81425 -14.44268,-22.81055 -1.29385,-0.9804 -4.02214,-2.61326 -6.06285,-3.62859 -3.62104,-1.80161 -3.78593,-1.84606 -6.84758,-1.84606 -5.26207,0 -5.99682,1.06352 -6.02903,8.72653 -0.0239,5.67809 -0.45575,6.92165 -3.28854,9.46857 -6.67332,5.99989 -15.95768,7.0623 -24.40118,2.79222 -4.13875,-2.09306 -6.87835,-4.40036 -9.01746,-7.59446 -2.34889,-3.50731 -6.90555,-12.18344 -8.46725,-16.09018 -0.90712,-2.26923 -2.13314,-4.71288 -2.7245,-5.43031 -1.44582,-1.75403 -4.82689,-3.35305 -8.9226,-4.21979 -5.56908,-1.17852 -19.88418,-1.37115 -103.10933,-1.38742 -25.8631,-0.005 -59.29952,-18.30137 -77.58928,-0.0152 -1.68376,1.68343 0,4.76191 0,7.14286 0,2.38096 2.37951,7.22553 0,7.14286 -34.17,-1.18714 -51.19048,0 -76.78572,0 -25.59524,0 -52.97286,-0.11572 -76.78571,0 -2.38093,0.0116 0,-4.7619 0,-7.14286 0,-2.38095 1.68359,-5.45927 0,-7.14286 -3.53554,-3.53553 -10,0 -15,0 -5,0 -11.46447,3.53554 -15,0 -2.69374,-2.69374 0,-7.61904 0,-11.42857 0,-3.80952 2.69335,-8.73444 0,-11.42857 -5.78651,-5.78815 -15.54098,-0.005 -24.55357,-0.007 -14.51238,-0.004 -25.56848,-0.15375 -27.03531,-0.36575 -3.07465,-0.44435 -4.37808,-1.18207 -5.33602,-3.02004 -0.66526,-1.27641 -0.76534,-2.24642 -0.93965,-9.10714 -0.21195,-8.34214 -0.0651,-9.31753 1.67594,-11.13527 0.54375,-0.5677 1.58888,-1.10365 2.57034,-1.3181 2.55194,-0.5576 68.22446,-0.75685 263.08256,-0.79817 175.72407,-0.0373 180.13839,0.70039 197.49999,1.8476 22.09511,1.46003 41.70822,4.17621 51.78572,7.17168 6.71325,1.99547 17.00435,8.63314 24.22703,15.62617 4.63561,4.48826 8.28047,8.85959 13.56279,16.26608 10.13361,14.20864 13.14296,19.87822 18.5875,35.01859 11.43418,31.79654 16.34046,49.7499 18.87343,69.06262 0.64193,4.89439 0.78239,7.78814 0.79971,16.47309 0.0218,10.85275 -0.25507,14.53113 -1.63868,21.78572 -0.83543,4.38029 -1.68768,6.50626 -3.26935,8.15547 -1.96329,2.04707 -2.54875,2.20146 -8.35683,2.20378 -6.15817,0.003 -9.39882,0.44417 -19.39275,2.64339 -10.75235,2.36612 -13.23914,2.75643 -18.57142,2.91489 -3.48208,0.10347 -5.49854,-0.009 -7.2589,-0.40346 z M 701.25,618.921 c 1.76786,-0.31475 6.49321,-1.29676 10.50075,-2.18225 9.92,-2.19187 13.24232,-2.64285 19.49925,-2.64686 6.20068,-0.004 6.95975,-0.27107 8.73754,-3.07437 2.04585,-3.22595 3.54567,-12.64443 3.83292,-24.06926 0.61347,-24.40196 -4.2685,-46.66084 -19.54353,-89.10715 -5.29718,-14.7197 -6.97661,-18.1407 -14.18557,-28.89543 -11.53082,-17.20242 -19.16879,-25.30245 -30.74965,-32.60988 -6.70767,-4.2325 -10.02603,-5.49561 -19.47271,-7.41214 -13.68879,-2.77718 -32.68246,-4.78086 -55.94043,-5.90128 -13.32353,-0.64183 -48.58101,-2.03278 -48.18453,-1.64159 0.0819,0.0808 8.50596,0.32051 18.72025,0.53278 36.19982,0.75229 61.909,3.33804 80.99289,6.66672 10.94321,1.90875 15.64503,3.41963 21.60189,6.94152 11.93229,7.05477 21.41679,16.90798 32.82879,34.10502 7.84425,11.82071 9.01078,14.36143 16.90964,36.83017 8.33604,23.71234 12.95332,40.97114 15.41907,57.63411 0.74164,5.01202 0.81889,6.80274 0.81647,18.92858 -0.004,11.23802 -0.10686,14.02494 -0.64993,17.32142 -1.2404,7.52888 -2.12529,9.96534 -4.31872,11.8912 -1.53307,1.34607 -2.006,1.4264 -9.67153,1.6429 -5.46411,0.15433 -6.85736,0.33621 -13.92857,1.81836 -4.32143,0.90579 -9.54465,1.99855 -11.60715,2.42837 -3.08757,0.64344 -4.94868,0.78229 -10.53571,0.78604 -6.55143,0.004 -6.86182,-0.0281 -8.98993,-0.94122 -5.81343,-2.49439 -10.13721,-7.14345 -12.612,-13.56074 -2.17764,-5.64689 -2.29843,-6.61425 -2.31318,-18.52919 -0.008,-5.99107 0.0929,-14.1875 0.22289,-18.21429 0.28379,-8.78931 0.14761,-7.65464 -0.63896,5.32425 -0.71075,11.7279 -0.523,21.02928 0.52325,25.92575 2.36843,11.08411 8.62386,18.33818 17.55793,20.36088 2.88786,0.65382 10.52236,0.47656 15.17857,-0.35242 z m -32.06046,-63.85852 c -0.0749,-0.82889 -0.13529,-0.0607 -0.13418,1.70721 0,1.76785 0.0624,2.44604 0.13618,1.50708 0.0738,-0.93897 0.0729,-2.3854 -0.004,-3.21429 z m -0.77,-13.29279 c -0.3059,-3.73215 -0.7249,-9.43751 -0.93108,-12.67858 -0.72646,-11.41956 -1.6681,-16.83583 -3.94275,-22.67857 -3.88092,-9.96869 -10.7925,-17.86958 -19.29296,-22.0546 -3.06961,-1.51125 -5.08132,-2.03473 -7.82418,-2.03597 -3.40428,-0.001 -6.47228,2.02642 -6.39636,4.22802 0.0314,0.91021 0.0402,0.90643 0.34711,-0.14863 0.90657,-3.11666 4.9765,-4.55935 9.44211,-3.347 1.83128,0.49717 6.3565,2.74479 9.008,4.47416 4.40043,2.87006 9.58396,9.08116 12.57936,15.07297 3.79432,7.58993 4.91335,13.42926 5.92653,30.92571 0.30622,5.28805 0.70464,10.75234 0.88539,12.14285 0.18075,1.39051 0.36261,3.41214 0.40408,4.49249 l 0.0754,1.96429 0.13778,-1.78572 c 0.0758,-0.98214 -0.1125,-4.83928 -0.41842,-8.57142 z m -51.43158,-35.56576 c 3.10518,-0.56733 7.50308,-2.75907 9.84522,-4.90643 2.94636,-2.70137 3.17853,-3.37777 3.10489,-9.04608 l -0.062,-4.76745 -0.21915,4.82143 c -0.15932,3.50538 -0.38357,5.12845 -0.8215,5.94622 -1.39307,2.60128 -6.46417,5.98781 -10.62389,7.09474 -7.97607,2.12249 -18.92257,-2.33338 -23.48696,-9.5606 -2.10318,-3.33014 -6.14779,-11.04237 -7.93089,-15.08751 -1.6824,-3.81666 -2.43815,-5.11916 -3.90475,-6.72973 -2.00279,-2.19936 -7.46447,-4.09006 -12.53182,-4.3382 -4.4152,-0.2162 -2.94735,-1.1579 -3.03572,-0.14865 -0.0785,0.89654 -0.92025,-0.11635 2.67857,0.33862 4.11236,0.5199 8.09229,1.63974 10.47561,2.94754 2.55568,1.40239 3.9977,3.29391 5.42246,7.11269 1.02349,2.74327 4.97004,10.56224 7.424,14.70204 2.01232,3.39481 4.49154,5.99379 7.51529,7.8784 5.47064,3.40972 10.98275,4.68717 16.1506,3.74297 z m -53.32724,-37.02206 c -2.0134,-0.0637 -5.30804,-0.0637 -7.32143,0 -2.01339,0.0637 -0.36607,0.11574 3.66071,0.11574 4.02679,0 5.67411,-0.0521 3.66072,-0.11574 z m -10.53925,-17.84558 c 1.13885,0 -0.13033,-0.29875 -0.13072,1.86196 -4e-4,2.16072 0.0574,3.09069 0.12925,2.06661 0.0719,-1.02407 -1.13895,-3.92857 0,-3.92857 z"
       id="path206"
       inkscape:connector-curvature="0"
       transform="scale(0.26458333)"
       sodipodi:nodetypes="csscccccscsscsssssssssssssssssssssscscsssccccsccccccccccccsssssssccccssscccccscscccccccsccccccsssssccccccccccscsssssssccccsssssssss" />
    <path
       style="fill:#ff6600;stroke-width:0.35714287"
       d="m 685.95539,619.93853 c -10.32318,-2.21471 -17.11914,-11.29593 -18.8015,-25.12376 -0.5206,-4.27928 -0.45464,-12.38525 0.18029,-22.15223 0.62593,-9.62813 0.72593,-22.85583 0.20261,-26.7997 -0.19654,-1.4809 -0.61025,-7.02555 -0.9194,-12.32143 -0.8835,-15.1344 -1.82478,-20.91447 -4.49482,-27.60104 -2.10675,-5.27591 -6.31046,-11.51165 -10.09928,-14.98111 -2.18097,-1.99714 -6.05797,-4.48724 -9.46611,-6.07983 -2.40497,-1.12381 -3.085,-1.28115 -5.62397,-1.30121 -5.31414,-0.042 -5.92164,0.81132 -6.21303,8.72718 -0.23668,6.42883 -0.39689,6.87523 -3.44122,9.58858 -4.05978,3.61846 -10.00485,5.6903 -15.06182,5.24902 -7.4781,-0.65254 -14.88746,-4.90444 -18.5206,-10.62813 -2.292,-3.61083 -6.05743,-10.73316 -7.46836,-14.12642 -2.63475,-6.33648 -3.51686,-7.45411 -7.15232,-9.06226 -3.61579,-1.59944 -7.553,-2.09988 -19.25443,-2.44738 -6.08929,-0.18083 -46.01054,-0.33561 -88.71386,-0.34396 l -77.64243,-0.0152 0.17039,6.51786 c 0.0937,3.58482 0.10584,6.79911 0.027,7.14286 -0.13605,0.59285 -4.08288,0.625 -76.72438,0.625 h -76.58097 l -0.75957,-0.75958 c -0.80641,-0.8064 -0.80222,-1.74129 0.0278,-6.20471 0.18264,-0.98214 0.34165,-3.03125 0.35336,-4.55357 l 0.0213,-2.76786 -10.26786,-0.002 c -6.07016,-10e-4 -11.39403,0.16905 -13.02255,0.41693 -2.14176,0.32599 -3.18983,0.3219 -4.71032,-0.0184 -1.79094,-0.4008 -2.01761,-0.5657 -2.69173,-1.95825 -0.86704,-1.79107 -0.89704,-2.8115 -0.17458,-5.93794 0.30624,-1.32522 0.62911,-5.11849 0.75239,-8.83929 l 0.21594,-6.51773 -24.60422,-0.007 c -14.54629,-0.004 -25.61872,-0.1537 -27.08595,-0.36575 -5.35724,-0.77426 -5.94619,-1.83406 -6.41375,-11.5416 -0.39305,-8.16042 -0.11846,-10.43393 1.45906,-12.0805 0.53199,-0.55528 1.53889,-1.18374 2.23755,-1.39657 3.19377,-0.97293 412.12788,-1.2649 438.94888,-0.31341 31.06214,1.10195 55.2371,3.65821 70.89285,7.49622 8.57825,2.10295 18.50893,8.11691 27.09822,16.41046 5.82828,5.62761 10.06157,10.92407 17.51114,21.90889 6.67604,9.84421 9.06022,14.33337 12.46436,23.469 13.70389,36.7769 20.03332,60.66815 21.70986,81.94658 0.57578,7.30773 0.2326,20.37497 -0.69429,26.43804 -1.30011,8.50409 -2.00932,10.74267 -4.11143,12.9769 -1.91218,2.0324 -2.53789,2.20146 -8.15653,2.20378 -6.05358,0.003 -9.46793,0.47898 -20.57065,2.87069 -13.44596,2.89649 -19.35746,3.4346 -24.831,2.26033 z m 14.40175,-0.86533 c 1.27679,-0.2072 6.01786,-1.18343 10.53572,-2.16938 4.51785,-0.98595 9.58035,-2.00659 11.25,-2.26808 1.66964,-0.26149 2.55357,-0.49079 1.96428,-0.50955 -1.38618,-0.0441 -4.79375,0.57818 -15.53571,2.83716 -7.89486,1.66025 -9.32614,1.85839 -14.645,2.02734 -8.26089,0.2624 -10.87922,-0.39986 -15.55225,-3.93368 -5.04872,-3.81789 -8.67857,-10.72445 -9.77336,-18.59575 -0.49778,-3.57878 -0.49589,-16.80751 0.004,-25.90588 0.21465,-3.90879 0.32868,-7.40427 0.25347,-7.76773 -0.0752,-0.36345 -0.34229,2.47311 -0.59343,6.30346 -1.46114,22.28521 -0.72114,30.66584 3.415,38.67415 3.34803,6.48243 9.11064,10.73856 15.99903,11.81658 1.6294,0.255 10.05618,-0.0831 12.67858,-0.50864 z m 37.94847,-6.14029 c 2.37278,-1.81172 3.74153,-6.21204 4.97218,-15.98465 0.71171,-5.652 0.59935,-22.75568 -0.1924,-29.28572 -2.3501,-19.38246 -7.68607,-39.08688 -19.1495,-70.71428 -5.46789,-15.08584 -7.63775,-19.22569 -17.31521,-33.03572 -9.67143,-13.80141 -17.92079,-21.93939 -28.94211,-28.55142 -6.06425,-3.63813 -11.2615,-5.33999 -22.32143,-7.30928 -8.78318,-1.5639 -30.76457,-4.03817 -34.80285,-3.91747 -0.79593,0.0238 0.88321,0.261 3.73142,0.52715 20.86543,1.94974 36.93772,4.46987 44.46429,6.97199 10.68882,3.55338 23.40232,13.77058 33.05714,26.56637 10.93457,14.49193 15.81143,22.96539 20.45136,35.53409 11.25096,30.47672 17.35693,52.11615 20.10457,71.25 0.75747,5.27495 1.07332,23.71146 0.52004,30.35494 -0.8954,10.75146 -2.59643,15.86725 -5.91882,17.8008 -0.40304,0.23456 -3.04858,0.50872 -6.07143,0.62919 l -5.35715,0.21349 5.74343,-0.0349 c 5.6879,-0.0346 5.75586,-0.0444 7.02647,-1.01455 z m -69.88232,-70.9699 c -0.3089,-3.83847 -0.72486,-9.47011 -0.92433,-12.51475 -0.87885,-13.41424 -2.08267,-19.29671 -5.37196,-26.25 -4.03475,-8.52916 -10.02536,-14.77011 -18.03804,-18.79182 -3.32,-1.66636 -3.81628,-1.81132 -6.60714,-1.92989 l -3.01753,-0.1282 2.67857,0.29505 c 7.22768,0.79613 16.19325,7.01847 21.18225,14.70102 6.0495,9.31568 7.87882,16.16331 8.81493,32.99669 0.48775,8.77099 1.58332,21.35154 1.72742,19.83619 0.0646,-0.67938 -0.13525,-4.37581 -0.44417,-8.21429 z m -51.10186,-35.90918 c 4.94528,-1.03827 10.59161,-4.72407 12.00553,-7.83692 0.524,-1.15361 0.647,-2.24425 0.60636,-5.3758 l -0.051,-3.92857 -0.22818,4.10714 c -0.26318,4.73719 -0.624,5.64972 -3.0936,7.82356 -3.69354,3.25117 -8.14236,5.03359 -12.56358,5.03359 -7.31367,0 -15.14614,-3.96673 -18.9711,-9.60783 -1.88832,-2.78495 -5.98079,-10.48472 -8.21257,-15.45158 -1.84829,-4.11336 -3.64325,-6.72189 -5.14836,-7.48189 -0.42464,-0.21442 -0.16925,0.12078 0.56757,0.74487 1.67118,1.41556 2.66561,3.10265 4.63757,7.86786 1.86418,4.50473 6.10214,12.32171 8.2955,15.3012 3.22979,4.38735 9.35157,7.95109 15.39693,8.96317 2.67036,0.44705 4.02482,0.41523 6.75893,-0.1588 z m 15.64996,-22.65175 c 0.82111,-0.40644 1.28404,-0.7391 1.02872,-0.73926 -1.47172,-7.1e-4 -3.46318,1.76477 -3.8264,3.39258 -0.20321,0.91077 -0.12332,0.84757 0.53286,-0.42146 0.53086,-1.02666 1.23818,-1.72367 2.26482,-2.23186 z m -15.02496,-59.56932 c -0.63839,-0.0792 -1.68304,-0.0792 -2.32143,0 -0.63839,0.0792 -0.11607,0.14404 1.16071,0.14404 1.27679,0 1.79911,-0.0648 1.16072,-0.14404 z m -5.53572,-0.35459 c -0.54017,-0.0818 -1.4241,-0.0818 -1.96428,0 -0.54018,0.0818 -0.0982,0.14878 0.98214,0.14878 1.08036,0 1.52232,-0.067 0.98214,-0.14878 z m -7.31464,-0.33561 c -0.24178,-0.0978 -0.72393,-0.10378 -1.07143,-0.0132 -0.34746,0.0906 -0.14964,0.17059 0.43965,0.17787 0.58928,0.007 0.8736,-0.0668 0.63178,-0.16464 z"
       id="path208"
       inkscape:connector-curvature="0"
       transform="scale(0.26458333)" />
  </g>
</svg>
